<svg width="21" height="20" viewBox="0 0 21 20" fill="none" xmlns="http://www.w3.org/2000/svg">
<path d="M17.3125 6.25C16.8799 6.25 16.4569 6.3783 16.0972 6.61866C15.7375 6.85903 15.4571 7.20067 15.2915 7.60038C15.1259 8.00009 15.0826 8.43993 15.167 8.86426C15.2514 9.28859 15.4598 9.67837 15.7657 9.9843C16.0716 10.2902 16.4614 10.4986 16.8857 10.583C17.3101 10.6674 17.7499 10.6241 18.1496 10.4585C18.5493 10.2929 18.891 10.0125 19.1313 9.65281C19.3717 9.29308 19.5 8.87015 19.5 8.4375C19.5 7.85734 19.2695 7.30094 18.8593 6.89071C18.4491 6.48047 17.8927 6.25 17.3125 6.25ZM17.3125 9.375C17.1271 9.375 16.9458 9.32002 16.7917 9.217C16.6375 9.11399 16.5173 8.96757 16.4464 8.79627C16.3754 8.62496 16.3568 8.43646 16.393 8.2546C16.4292 8.07275 16.5185 7.9057 16.6496 7.77459C16.7807 7.64348 16.9477 7.55419 17.1296 7.51801C17.3115 7.48184 17.5 7.50041 17.6713 7.57136C17.8426 7.64232 17.989 7.76248 18.092 7.91665C18.195 8.07082 18.25 8.25208 18.25 8.4375C18.25 8.68614 18.1512 8.9246 17.9754 9.10041C17.7996 9.27623 17.5611 9.375 17.3125 9.375ZM6.375 8.4375C6.375 8.00485 6.24671 7.58192 6.00634 7.22219C5.76598 6.86246 5.42433 6.58208 5.02462 6.41651C4.62491 6.25095 4.18507 6.20763 3.76074 6.29203C3.33641 6.37644 2.94663 6.58478 2.6407 6.89071C2.33478 7.19663 2.12644 7.58641 2.04203 8.01074C1.95763 8.43507 2.00095 8.87491 2.16651 9.27462C2.33208 9.67433 2.61246 10.016 2.97219 10.2563C3.33192 10.4967 3.75485 10.625 4.1875 10.625C4.76766 10.625 5.32406 10.3945 5.7343 9.9843C6.14453 9.57406 6.375 9.01766 6.375 8.4375ZM4.1875 9.375C4.00208 9.375 3.82082 9.32002 3.66665 9.217C3.51248 9.11399 3.39232 8.96757 3.32136 8.79627C3.25041 8.62496 3.23184 8.43646 3.26801 8.2546C3.30419 8.07275 3.39348 7.9057 3.52459 7.77459C3.6557 7.64348 3.82275 7.55419 4.0046 7.51801C4.18646 7.48184 4.37496 7.50041 4.54627 7.57136C4.71757 7.64232 4.86399 7.76248 4.967 7.91665C5.07002 8.07082 5.125 8.25208 5.125 8.4375C5.125 8.68614 5.02623 8.9246 4.85041 9.10041C4.6746 9.27623 4.43614 9.375 4.1875 9.375ZM7.9375 6.875C8.37015 6.875 8.79308 6.74671 9.15281 6.50634C9.51254 6.26598 9.79292 5.92433 9.95849 5.52462C10.1241 5.12491 10.1674 4.68507 10.083 4.26074C9.99856 3.83641 9.79022 3.44663 9.4843 3.1407C9.17837 2.83478 8.78859 2.62644 8.36426 2.54203C7.93993 2.45763 7.50009 2.50095 7.10038 2.66651C6.70067 2.83208 6.35903 3.11246 6.11866 3.47219C5.8783 3.83192 5.75 4.25485 5.75 4.6875C5.75 5.26766 5.98047 5.82406 6.39071 6.2343C6.80094 6.64453 7.35734 6.875 7.9375 6.875ZM7.9375 3.75C8.12292 3.75 8.30418 3.80498 8.45835 3.908C8.61252 4.01101 8.73268 4.15743 8.80364 4.32874C8.8746 4.50004 8.89316 4.68854 8.85699 4.8704C8.82081 5.05226 8.73153 5.2193 8.60041 5.35041C8.4693 5.48153 8.30226 5.57081 8.1204 5.60699C7.93854 5.64316 7.75004 5.6246 7.57874 5.55364C7.40743 5.48268 7.26101 5.36252 7.158 5.20835C7.05498 5.05418 7 4.87292 7 4.6875C7 4.43886 7.09877 4.2004 7.27459 4.02459C7.4504 3.84877 7.68886 3.75 7.9375 3.75ZM13.5625 6.875C13.9951 6.875 14.4181 6.74671 14.7778 6.50634C15.1375 6.26598 15.4179 5.92433 15.5835 5.52462C15.7491 5.12491 15.7924 4.68507 15.708 4.26074C15.6236 3.83641 15.4152 3.44663 15.1093 3.1407C14.8034 2.83478 14.4136 2.62644 13.9893 2.54203C13.5649 2.45763 13.1251 2.50095 12.7254 2.66651C12.3257 2.83208 11.984 3.11246 11.7437 3.47219C11.5033 3.83192 11.375 4.25485 11.375 4.6875C11.375 5.26766 11.6055 5.82406 12.0157 6.2343C12.4259 6.64453 12.9823 6.875 13.5625 6.875ZM13.5625 3.75C13.7479 3.75 13.9292 3.80498 14.0833 3.908C14.2375 4.01101 14.3577 4.15743 14.4286 4.32874C14.4996 4.50004 14.5182 4.68854 14.482 4.8704C14.4458 5.05226 14.3565 5.2193 14.2254 5.35041C14.0943 5.48153 13.9273 5.57081 13.7454 5.60699C13.5635 5.64316 13.375 5.6246 13.2037 5.55364C13.0324 5.48268 12.886 5.36252 12.783 5.20835C12.68 5.05418 12.625 4.87292 12.625 4.6875C12.625 4.43886 12.7238 4.2004 12.8996 4.02459C13.0754 3.84877 13.3139 3.75 13.5625 3.75ZM15.3688 11.6297C15.0513 11.4546 14.7715 11.2185 14.5453 10.9351C14.3192 10.6517 14.1511 10.3265 14.0508 9.97813C13.843 9.26348 13.4088 8.63557 12.8136 8.18878C12.2184 7.74199 11.4943 7.50044 10.75 7.50044C10.0058 7.50044 9.2816 7.74199 8.68638 8.18878C8.09116 8.63557 7.65703 9.26348 7.44922 9.97813C7.24848 10.6792 6.77787 11.272 6.14063 11.6266C5.52931 11.9573 5.04573 12.4825 4.76635 13.1189C4.48698 13.7554 4.42776 14.4668 4.59807 15.1407C4.76837 15.8146 5.15848 16.4124 5.7067 16.8397C6.25491 17.267 6.92993 17.4994 7.625 17.5C8.04153 17.5012 8.45399 17.418 8.8375 17.2555C10.0602 16.7512 11.4328 16.7512 12.6555 17.2555C13.3961 17.5776 14.2326 17.6004 14.9897 17.3193C15.7468 17.0382 16.3656 16.4749 16.7165 15.7475C17.0673 15.0201 17.123 14.1851 16.8717 13.4175C16.6205 12.65 16.0818 12.0096 15.3688 11.6305V11.6297ZM13.875 16.25C13.6212 16.2502 13.3701 16.1989 13.1367 16.0992C11.606 15.4669 9.88702 15.4669 8.35625 16.0992C7.91141 16.2908 7.4097 16.3027 6.95623 16.1326C6.50275 15.9625 6.13269 15.6235 5.92356 15.1867C5.71442 14.7499 5.68244 14.249 5.83431 13.7891C5.98619 13.3292 6.31013 12.9459 6.73828 12.7195C7.19863 12.4653 7.60434 12.1228 7.93224 11.7117C8.26013 11.3005 8.50377 10.8288 8.64922 10.3234C8.7813 9.86843 9.05753 9.46861 9.43638 9.18409C9.81523 8.89958 10.2762 8.74575 10.75 8.74575C11.2238 8.74575 11.6848 8.89958 12.0636 9.18409C12.4425 9.46861 12.7187 9.86843 12.8508 10.3234C12.9967 10.8297 13.2411 11.3023 13.5699 11.714C13.8988 12.1257 14.3056 12.4685 14.7672 12.7227C15.1358 12.9204 15.4277 13.2356 15.5965 13.6184C15.7653 14.0011 15.8013 14.4293 15.6987 14.8348C15.5962 15.2403 15.3609 15.5999 15.0305 15.8563C14.7 16.1128 14.2933 16.2513 13.875 16.25Z" fill="#999999"/>
</svg>
