<svg width="243" height="80" viewBox="0 0 243 80" fill="none" xmlns="http://www.w3.org/2000/svg">
<path d="M0 23C0 20.2386 2.23858 18 5 18H35C37.7614 18 40 20.2386 40 23V51.8676C40 54.0336 38.6054 55.9533 36.5454 56.6227L21.5454 61.4977C20.541 61.8242 19.459 61.8242 18.4546 61.4977L3.45457 56.6227C1.39463 55.9533 0 54.0336 0 51.8676V23Z" fill="url(#paint0_linear_40000049_9332)"/>
<path d="M2 25C2 22.2386 4.23858 20 7 20H33C35.7614 20 38 22.2386 38 25V50.4698C38 52.6303 36.6123 54.5465 34.5595 55.2204L21.5595 59.488C20.5464 59.8206 19.4536 59.8206 18.4405 59.488L5.44047 55.2204C3.38772 54.5465 2 52.6303 2 50.4698V25Z" fill="url(#paint1_linear_40000049_9332)" fill-opacity="0.2"/>
<path d="M7 20.5H33C35.4853 20.5 37.5 22.5147 37.5 25V50.4697C37.5 52.2926 36.4026 53.9228 34.7432 54.6191L34.4033 54.7451L21.4033 59.0127C20.6056 59.2746 19.7529 59.3077 18.9414 59.1113L18.5967 59.0127L5.59668 54.7451C3.7492 54.1386 2.5 52.4142 2.5 50.4697V25C2.5 22.5147 4.51472 20.5 7 20.5Z" stroke="white" stroke-opacity="0.6"/>
<mask id="mask0_40000049_9332" style="mask-type:alpha" maskUnits="userSpaceOnUse" x="0" y="18" width="40" height="44">
<path d="M0 23C0 20.2386 2.23858 18 5 18H35C37.7614 18 40 20.2386 40 23V51.8676C40 54.0336 38.6054 55.9533 36.5454 56.6227L21.5454 61.4977C20.541 61.8242 19.459 61.8242 18.4546 61.4977L3.45457 56.6227C1.39463 55.9533 0 54.0336 0 51.8676V23Z" fill="url(#paint2_linear_40000049_9332)"/>
</mask>
<g mask="url(#mask0_40000049_9332)">
<path d="M-20 62.7544L38.9484 4.06801L42.7364 7.83924L-16.2119 66.5256L-20 62.7544Z" fill="white" fill-opacity="0.2"/>
<path d="M-11.582 76.6865L47.3663 18.0001L58.7975 29.3805L-0.150903 88.0668L-11.582 76.6865Z" fill="white" fill-opacity="0.2"/>
</g>
<path d="M24.5 32.375C24.5 32.5975 24.434 32.815 24.3104 33C24.1868 33.185 24.0111 33.3292 23.8055 33.4144C23.6 33.4995 23.3738 33.5218 23.1555 33.4784C22.9373 33.435 22.7368 33.3278 22.5795 33.1705C22.4222 33.0132 22.315 32.8127 22.2716 32.5945C22.2282 32.3762 22.2505 32.15 22.3356 31.9445C22.4208 31.7389 22.565 31.5632 22.75 31.4396C22.935 31.316 23.1525 31.25 23.375 31.25C23.6734 31.25 23.9595 31.3685 24.1705 31.5795C24.3815 31.7905 24.5 32.0766 24.5 32.375ZM30.5 33.5C30.5001 33.6235 30.4697 33.7451 30.4114 33.854C30.3532 33.963 30.269 34.0558 30.1663 34.1244L28.25 35.4012V37.25C28.2473 39.835 27.2192 42.3134 25.3913 44.1413C23.5634 45.9692 21.085 46.9973 18.5 47H10.25C9.9674 47 9.69055 46.9202 9.45134 46.7697C9.21213 46.6192 9.02029 46.4043 8.89792 46.1495C8.77555 45.8948 8.72763 45.6107 8.75968 45.3299C8.79173 45.0491 8.90244 44.7831 9.07906 44.5625L9.08844 44.5513L17 35.0591V33.2084C17 30.0753 19.5116 27.515 22.5978 27.5H22.625C23.8199 27.4996 24.9839 27.8798 25.9482 28.5854C26.9126 29.291 27.6272 30.2854 27.9884 31.4244L30.1663 32.8756C30.269 32.9442 30.3532 33.037 30.4114 33.146C30.4697 33.2549 30.5001 33.3765 30.5 33.5ZM28.3981 33.5L26.9281 32.5194C26.7748 32.4174 26.6643 32.2626 26.6178 32.0844C26.3875 31.2009 25.8705 30.4187 25.148 29.8606C24.4254 29.3024 23.538 28.9997 22.625 29H22.6044C20.3413 29.0113 18.5 30.8984 18.5 33.2084V35.33C18.5003 35.5057 18.4389 35.6759 18.3266 35.8109L10.25 45.5H12.7719L19.4225 37.52C19.4848 37.4421 19.5621 37.3775 19.6497 37.3299C19.7373 37.2822 19.8335 37.2525 19.9327 37.2425C20.032 37.2325 20.1322 37.2424 20.2275 37.2716C20.3229 37.3007 20.4115 37.3487 20.4881 37.4125C20.5647 37.4763 20.6278 37.5548 20.6738 37.6433C20.7197 37.7319 20.7475 37.8287 20.7555 37.9281C20.7636 38.0275 20.7518 38.1275 20.7207 38.2223C20.6897 38.317 20.64 38.4046 20.5747 38.48L14.7266 45.5H18.5C20.6873 45.4975 22.7843 44.6275 24.3309 43.0809C25.8775 41.5343 26.7475 39.4373 26.75 37.25V35C26.7499 34.8765 26.7803 34.7549 26.8386 34.646C26.8968 34.537 26.981 34.4442 27.0838 34.3756L28.3981 33.5Z" fill="#595959"/>
<path d="M60 23C60 20.2386 62.2386 18 65 18H95C97.7614 18 100 20.2386 100 23V51.8676C100 54.0336 98.6054 55.9533 96.5454 56.6227L81.5454 61.4977C80.541 61.8242 79.459 61.8242 78.4546 61.4977L63.4546 56.6227C61.3946 55.9533 60 54.0336 60 51.8676V23Z" fill="url(#paint3_linear_40000049_9332)"/>
<path d="M62 25C62 22.2386 64.2386 20 67 20H93C95.7614 20 98 22.2386 98 25V50.4698C98 52.6303 96.6123 54.5465 94.5595 55.2204L81.5595 59.488C80.5464 59.8206 79.4536 59.8206 78.4405 59.488L65.4405 55.2204C63.3877 54.5465 62 52.6303 62 50.4698V25Z" fill="url(#paint4_linear_40000049_9332)" fill-opacity="0.2"/>
<path d="M67 20.5H93C95.4853 20.5 97.5 22.5147 97.5 25V50.4697C97.5 52.2926 96.4026 53.9228 94.7432 54.6191L94.4033 54.7451L81.4033 59.0127C80.6056 59.2746 79.7529 59.3077 78.9414 59.1113L78.5967 59.0127L65.5967 54.7451C63.7492 54.1386 62.5 52.4142 62.5 50.4697V25C62.5 22.5147 64.5147 20.5 67 20.5Z" stroke="white" stroke-opacity="0.6"/>
<mask id="mask1_40000049_9332" style="mask-type:alpha" maskUnits="userSpaceOnUse" x="60" y="18" width="40" height="44">
<path d="M60 23C60 20.2386 62.2386 18 65 18H95C97.7614 18 100 20.2386 100 23V51.8676C100 54.0336 98.6054 55.9533 96.5454 56.6227L81.5454 61.4977C80.541 61.8242 79.459 61.8242 78.4546 61.4977L63.4546 56.6227C61.3946 55.9533 60 54.0336 60 51.8676V23Z" fill="url(#paint5_linear_40000049_9332)"/>
</mask>
<g mask="url(#mask1_40000049_9332)">
<path d="M40 62.7544L98.9484 4.06801L102.736 7.83924L43.7881 66.5256L40 62.7544Z" fill="white" fill-opacity="0.2"/>
<path d="M48.418 76.6865L107.366 18.0001L118.797 29.3805L59.8491 88.0668L48.418 76.6865Z" fill="white" fill-opacity="0.2"/>
</g>
<path d="M90.4722 37.7188L88.9328 29.4688C88.8952 29.2677 88.8169 29.0765 88.7026 28.9068C88.5883 28.7371 88.4405 28.5926 88.2683 28.4821C88.0961 28.3716 87.9032 28.2975 87.7013 28.2644C87.4994 28.2313 87.2929 28.2398 87.0944 28.2895L87.0653 28.2979L82.1416 29.7501H77.8572L72.9335 28.3026L72.9044 28.2942C72.7059 28.2445 72.4994 28.236 72.2975 28.2691C72.0956 28.3022 71.9026 28.3763 71.7304 28.4868C71.5583 28.5972 71.4105 28.7418 71.2962 28.9115C71.1819 29.0812 71.1036 29.2724 71.066 29.4735L69.5266 37.7188C69.4607 38.0491 69.5096 38.3919 69.6651 38.6905C69.8206 38.9892 70.0733 39.2259 70.3816 39.3613C70.579 39.4519 70.7935 39.4992 71.0106 39.5001C71.2706 39.5 71.5257 39.43 71.7494 39.2976V43.2501C71.7494 44.2447 72.1445 45.1985 72.8477 45.9017C73.551 46.605 74.5048 47.0001 75.4994 47.0001H84.4994C85.494 47.0001 86.4478 46.605 87.151 45.9017C87.8543 45.1985 88.2494 44.2447 88.2494 43.2501V39.2985C88.4728 39.4307 88.7276 39.5006 88.9872 39.501C89.2046 39.5004 89.4194 39.4534 89.6172 39.3632C89.9258 39.2277 90.1789 38.9907 90.3344 38.6916C90.4899 38.3926 90.5385 38.0493 90.4722 37.7188ZM70.9994 38.0001L72.5397 29.7501L76.4838 30.9098L70.9994 38.0001ZM84.4994 45.5001H80.7494V44.3104L82.03 43.0307C82.1707 42.89 82.2498 42.6991 82.2498 42.5001C82.2498 42.3011 82.1707 42.1102 82.03 41.9695C81.8893 41.8287 81.6984 41.7497 81.4994 41.7497C81.3004 41.7497 81.1095 41.8287 80.9688 41.9695L79.9994 42.9398L79.03 41.9695C78.8893 41.8287 78.6984 41.7497 78.4994 41.7497C78.3004 41.7497 78.1095 41.8287 77.9688 41.9695C77.828 42.1102 77.749 42.3011 77.749 42.5001C77.749 42.6991 77.828 42.89 77.9688 43.0307L79.2494 44.3104V45.5001H75.4994C74.9027 45.5001 74.3304 45.263 73.9084 44.8411C73.4864 44.4191 73.2494 43.8468 73.2494 43.2501V37.5417L78.1169 31.2501H81.881L86.7494 37.5417V43.2501C86.7494 43.8468 86.5123 44.4191 86.0904 44.8411C85.6684 45.263 85.0961 45.5001 84.4994 45.5001ZM88.9994 38.0001L83.515 30.9098L87.4591 29.7501L88.9994 38.0001ZM77.7494 39.1251C77.7494 39.3476 77.6834 39.5651 77.5598 39.7501C77.4362 39.9351 77.2605 40.0793 77.0549 40.1645C76.8493 40.2496 76.6231 40.2719 76.4049 40.2285C76.1867 40.1851 75.9862 40.0779 75.8289 39.9206C75.6716 39.7633 75.5644 39.5628 75.521 39.3446C75.4776 39.1263 75.4999 38.9001 75.585 38.6946C75.6702 38.489 75.8144 38.3133 75.9994 38.1897C76.1844 38.0661 76.4019 38.0001 76.6244 38.0001C76.9228 38.0001 77.2089 38.1186 77.4199 38.3296C77.6309 38.5406 77.7494 38.8267 77.7494 39.1251ZM84.4994 39.1251C84.4994 39.3476 84.4334 39.5651 84.3098 39.7501C84.1862 39.9351 84.0105 40.0793 83.8049 40.1645C83.5993 40.2496 83.3731 40.2719 83.1549 40.2285C82.9367 40.1851 82.7362 40.0779 82.5789 39.9206C82.4216 39.7633 82.3144 39.5628 82.271 39.3446C82.2276 39.1263 82.2499 38.9001 82.335 38.6946C82.4202 38.489 82.5644 38.3133 82.7494 38.1897C82.9344 38.0661 83.1519 38.0001 83.3744 38.0001C83.6728 38.0001 83.9589 38.1186 84.1699 38.3296C84.3809 38.5406 84.4994 38.8267 84.4994 39.1251Z" fill="#595959"/>
<path d="M120 23C120 20.2386 122.239 18 125 18H155C157.761 18 160 20.2386 160 23V51.8676C160 54.0336 158.605 55.9533 156.545 56.6227L141.545 61.4977C140.541 61.8242 139.459 61.8242 138.455 61.4977L123.455 56.6227C121.395 55.9533 120 54.0336 120 51.8676V23Z" fill="url(#paint6_linear_40000049_9332)"/>
<path d="M122 25C122 22.2386 124.239 20 127 20H153C155.761 20 158 22.2386 158 25V50.4698C158 52.6303 156.612 54.5465 154.56 55.2204L141.56 59.488C140.546 59.8206 139.454 59.8206 138.44 59.488L125.44 55.2204C123.388 54.5465 122 52.6303 122 50.4698V25Z" fill="url(#paint7_linear_40000049_9332)" fill-opacity="0.2"/>
<path d="M127 20.5H153C155.485 20.5 157.5 22.5147 157.5 25V50.4697C157.5 52.2926 156.403 53.9228 154.743 54.6191L154.403 54.7451L141.403 59.0127C140.606 59.2746 139.753 59.3077 138.941 59.1113L138.597 59.0127L125.597 54.7451C123.749 54.1386 122.5 52.4142 122.5 50.4697V25C122.5 22.5147 124.515 20.5 127 20.5Z" stroke="white" stroke-opacity="0.6"/>
<mask id="mask2_40000049_9332" style="mask-type:alpha" maskUnits="userSpaceOnUse" x="120" y="18" width="40" height="44">
<path d="M120 23C120 20.2386 122.239 18 125 18H155C157.761 18 160 20.2386 160 23V51.8676C160 54.0336 158.605 55.9533 156.545 56.6227L141.545 61.4977C140.541 61.8242 139.459 61.8242 138.455 61.4977L123.455 56.6227C121.395 55.9533 120 54.0336 120 51.8676V23Z" fill="url(#paint8_linear_40000049_9332)"/>
</mask>
<g mask="url(#mask2_40000049_9332)">
<path d="M100 62.7544L158.948 4.06801L162.736 7.83924L103.788 66.5256L100 62.7544Z" fill="white" fill-opacity="0.2"/>
<path d="M108.418 76.6865L167.366 18.0001L178.797 29.3805L119.849 88.0668L108.418 76.6865Z" fill="white" fill-opacity="0.2"/>
</g>
<path d="M137 39.125C137 39.3475 136.934 39.565 136.81 39.7501C136.687 39.9351 136.511 40.0793 136.306 40.1644C136.1 40.2496 135.874 40.2718 135.656 40.2284C135.437 40.185 135.237 40.0779 135.08 39.9205C134.922 39.7632 134.815 39.5627 134.772 39.3445C134.728 39.1263 134.75 38.9001 134.836 38.6945C134.921 38.489 135.065 38.3133 135.25 38.1896C135.435 38.066 135.652 38 135.875 38C136.173 38 136.46 38.1186 136.67 38.3295C136.881 38.5405 137 38.8267 137 39.125ZM144.125 38C143.902 38 143.685 38.066 143.5 38.1896C143.315 38.3133 143.171 38.489 143.086 38.6945C143 38.9001 142.978 39.1263 143.022 39.3445C143.065 39.5627 143.172 39.7632 143.33 39.9205C143.487 40.0779 143.687 40.185 143.906 40.2284C144.124 40.2718 144.35 40.2496 144.556 40.1644C144.761 40.0793 144.937 39.9351 145.06 39.7501C145.184 39.565 145.25 39.3475 145.25 39.125C145.25 38.8267 145.131 38.5405 144.92 38.3295C144.71 38.1186 144.423 38 144.125 38ZM149.75 30.5V38.75C149.75 43.7122 145.377 47.75 140 47.75C134.623 47.75 130.25 43.7122 130.25 38.75V30.5C130.25 30.2035 130.338 29.9136 130.503 29.667C130.668 29.4205 130.902 29.2283 131.176 29.1149C131.45 29.0014 131.752 28.9717 132.042 29.0295C132.333 29.0873 132.601 29.2301 132.81 29.4397C132.823 29.4529 132.835 29.465 132.846 29.4782L134.469 31.3438C136.128 30.3042 138.047 29.7528 140.005 29.7528C141.963 29.7528 143.881 30.3042 145.541 31.3438L147.154 29.4782C147.165 29.465 147.177 29.4529 147.19 29.4397C147.399 29.2301 147.667 29.0873 147.958 29.0295C148.248 28.9717 148.55 29.0014 148.824 29.1149C149.098 29.2283 149.332 29.4205 149.497 29.667C149.662 29.9136 149.75 30.2035 149.75 30.5ZM148.25 30.5L146.229 32.825C146.105 32.9681 145.932 33.0591 145.744 33.08C145.556 33.1009 145.367 33.05 145.215 32.9375C144.758 32.5992 144.267 32.3086 143.75 32.0704V34.25C143.75 34.449 143.671 34.6397 143.53 34.7804C143.39 34.921 143.199 35 143 35C142.801 35 142.61 34.921 142.47 34.7804C142.329 34.6397 142.25 34.449 142.25 34.25V31.536C141.758 31.4094 141.256 31.3241 140.75 31.281V34.25C140.75 34.449 140.671 34.6397 140.53 34.7804C140.39 34.921 140.199 35 140 35C139.801 35 139.61 34.921 139.47 34.7804C139.329 34.6397 139.25 34.449 139.25 34.25V31.281C138.744 31.3241 138.242 31.4094 137.75 31.536V34.25C137.75 34.449 137.671 34.6397 137.53 34.7804C137.39 34.921 137.199 35 137 35C136.801 35 136.61 34.921 136.47 34.7804C136.329 34.6397 136.25 34.449 136.25 34.25V32.0704C135.733 32.3086 135.242 32.5992 134.785 32.9375C134.633 33.0503 134.444 33.1017 134.256 33.0813C134.069 33.061 133.895 32.9705 133.771 32.8279L131.75 30.5V38.75C131.75 42.6557 135.051 45.875 139.25 46.2191V44.3104L137.969 43.0297C137.9 42.96 137.845 42.8773 137.807 42.7863C137.769 42.6953 137.75 42.5977 137.75 42.4992C137.75 42.4007 137.769 42.3032 137.807 42.2122C137.845 42.1212 137.9 42.0386 137.97 41.9689C138.111 41.8283 138.301 41.7494 138.5 41.7495C138.599 41.7495 138.696 41.769 138.787 41.8067C138.878 41.8444 138.961 41.8997 139.031 41.9694L140 42.9388L140.969 41.9694C141.039 41.8997 141.122 41.8444 141.213 41.8067C141.304 41.769 141.401 41.7495 141.5 41.7495C141.598 41.7494 141.696 41.7688 141.787 41.8065C141.878 41.8441 141.96 41.8993 142.03 41.9689C142.1 42.0386 142.155 42.1212 142.193 42.2122C142.231 42.3032 142.25 42.4007 142.25 42.4992C142.25 42.5977 142.231 42.6953 142.193 42.7863C142.155 42.8773 142.1 42.96 142.031 43.0297L140.75 44.3104V46.2191C144.949 45.8732 148.25 42.6566 148.25 38.75V30.5Z" fill="#595959"/>
<path d="M187.715 75.2156V25.3968C187.715 23.6435 189.154 22.2222 190.929 22.2222H231.751C233.526 22.2222 234.965 23.6435 234.965 25.3968V75.2156C234.965 77.4868 232.62 79.0233 230.501 78.1407L212.589 70.679C211.79 70.3463 210.889 70.3463 210.091 70.679L192.178 78.1407C190.059 79.0233 187.715 77.4868 187.715 75.2156Z" fill="#DF3D3D"/>
<mask id="mask3_40000049_9332" style="mask-type:alpha" maskUnits="userSpaceOnUse" x="187" y="22" width="48" height="57">
<path d="M187.715 75.2156V25.3968C187.715 23.6435 189.154 22.2222 190.929 22.2222H231.751C233.526 22.2222 234.965 23.6435 234.965 25.3968V75.2156C234.965 77.4868 232.62 79.0233 230.501 78.1407L212.589 70.679C211.79 70.3463 210.889 70.3463 210.091 70.679L192.178 78.1407C190.059 79.0233 187.715 77.4868 187.715 75.2156Z" fill="#DF3D3D"/>
</mask>
<g mask="url(#mask3_40000049_9332)">
<path d="M202.5 51.4285H220.5V83.1745H202.5V51.4285Z" fill="white" fill-opacity="0.6"/>
</g>
<path d="M243 31.1111C243 48.2933 228.897 62.2222 211.5 62.2222C194.103 62.2222 180 48.2933 180 31.1111C180 13.9289 194.103 0 211.5 0C228.897 0 243 13.9289 243 31.1111Z" fill="url(#paint9_linear_40000049_9332)"/>
<path d="M239.143 31.1112C239.143 46.1894 226.767 58.4127 211.5 58.4127C196.234 58.4127 183.857 46.1894 183.857 31.1112C183.857 16.0329 196.234 3.80957 211.5 3.80957C226.767 3.80957 239.143 16.0329 239.143 31.1112Z" fill="url(#paint10_linear_40000049_9332)" fill-opacity="0.2"/>
<path d="M210.347 20.0851C210.819 19.1412 212.181 19.1412 212.653 20.0851L214.98 24.7409C215.167 25.1157 215.529 25.3755 215.948 25.4356L221.15 26.1822C222.204 26.3335 222.626 27.6135 221.862 28.3481L218.098 31.9722C217.795 32.2639 217.657 32.6843 217.728 33.0962L218.617 38.2135C218.797 39.2508 217.695 40.0419 216.751 39.5521L212.098 37.136C211.724 36.9416 211.276 36.9416 210.902 37.136L206.249 39.5521C205.306 40.0419 204.203 39.2508 204.383 38.2135L205.272 33.0962C205.343 32.6843 205.205 32.2639 204.902 31.9722L201.138 28.3481C200.375 27.6135 200.796 26.3335 201.85 26.1822L207.053 25.4356C207.471 25.3755 207.833 25.1157 208.021 24.7409L210.347 20.0851Z" fill="url(#paint11_linear_40000049_9332)" fill-opacity="0.2"/>
<path fill-rule="evenodd" clip-rule="evenodd" d="M214.403 25.0219L212.077 20.366C211.841 19.8941 211.159 19.8941 210.924 20.366L208.597 25.0219C208.316 25.5841 207.773 25.9737 207.145 26.0639L201.943 26.8105C201.415 26.8862 201.205 27.5261 201.586 27.8935L205.351 31.5175C205.805 31.9551 206.013 32.5856 205.905 33.2035L205.017 38.3208C204.927 38.8395 205.478 39.235 205.95 38.9901L210.603 36.5741C211.164 36.2823 211.836 36.2823 212.398 36.5741L217.051 38.9901C217.522 39.235 218.073 38.8395 217.983 38.3208L217.095 33.2035C216.987 32.5856 217.195 31.9551 217.649 31.5175L221.414 27.8935C221.795 27.5261 221.585 26.8862 221.057 26.8105L215.855 26.0639C215.227 25.9737 214.684 25.5841 214.403 25.0219ZM212.653 20.0851C212.181 19.1412 210.819 19.1412 210.347 20.0851L208.021 24.7409C207.833 25.1157 207.471 25.3755 207.053 25.4356L201.85 26.1822C200.796 26.3335 200.375 27.6135 201.138 28.3481L204.902 31.9722C205.205 32.2639 205.343 32.6843 205.272 33.0962L204.383 38.2135C204.203 39.2508 205.306 40.0419 206.249 39.5521L210.902 37.136C211.276 36.9416 211.724 36.9416 212.098 37.136L216.751 39.5521C217.695 40.0419 218.797 39.2508 218.617 38.2135L217.728 33.0962C217.657 32.6843 217.795 32.2639 218.098 31.9722L221.862 28.3481C222.626 27.6135 222.204 26.3335 221.15 26.1822L215.948 25.4356C215.529 25.3755 215.167 25.1157 214.98 24.7409L212.653 20.0851Z" fill="black" fill-opacity="0.2"/>
<path fill-rule="evenodd" clip-rule="evenodd" d="M211.499 58.4127C226.766 58.4127 239.142 46.1894 239.142 31.1111C239.142 16.0329 226.766 3.80955 211.499 3.80955C196.232 3.80955 183.856 16.0329 183.856 31.1111C183.856 46.1894 196.232 58.4127 211.499 58.4127ZM211.499 60.3175C227.831 60.3175 241.071 47.2414 241.071 31.1111C241.071 14.9809 227.831 1.90479 211.499 1.90479C195.167 1.90479 181.928 14.9809 181.928 31.1111C181.928 47.2414 195.167 60.3175 211.499 60.3175Z" fill="#333333" fill-opacity="0.3"/>
<path d="M195.37 41.3502C195.502 42.2874 195.296 43.0147 195.154 43.6344C195.007 44.2593 194.839 44.8329 195.102 45.4424C195.212 45.7138 195.407 46.0724 195.665 46.4463C195.607 46.3797 195.549 46.3131 195.496 46.2465C195.623 46.4258 195.749 46.564 195.864 46.7279C195.444 46.3028 195.097 45.888 194.797 45.6575C194.255 45.2375 193.703 45.1197 193.014 44.961C192.319 44.8022 191.578 44.541 190.705 43.7778C190.289 43.3835 190.873 44.4129 191.778 45.596C192.672 46.7843 193.982 48.034 194.586 48.4232C195.123 48.7971 195.922 49.0071 196.596 49.1351C197.285 49.2581 197.9 49.2581 198.147 49.2581C200.083 51.1428 202.376 52.7408 205 53.673L205.169 53.1762C202.602 52.3874 200.256 50.9072 198.247 49.1095C198.242 48.8227 198.194 48.2593 198.142 47.6294C198.095 46.9892 197.979 46.3387 197.795 45.8163C197.563 45.2427 196.806 43.9469 196.28 42.8406C195.738 41.7445 195.328 40.8841 195.37 41.3553V41.3502Z" fill="white" fill-opacity="0.4"/>
<path d="M194.228 44.8943C194.228 44.8943 194.108 44.7048 193.918 44.4027C193.718 44.1056 193.476 43.6805 193.208 43.2247C192.929 42.774 192.656 42.2772 192.398 41.8316C192.125 41.3911 191.888 40.9865 191.688 40.7253C191.283 40.2029 190.736 40.0031 190.147 39.6958C189.553 39.3937 188.843 39.0198 188.222 38.0979C188.064 37.8674 188.075 38.0262 188.19 38.4154C188.248 38.6049 188.327 38.861 188.443 39.1427C188.564 39.4244 188.706 39.7368 188.858 40.0646C189.148 40.7304 189.574 41.4116 189.931 42.016C190.315 42.605 190.689 43.0864 190.925 43.3425C191.446 43.8751 192.288 44.29 192.977 44.5512C193.687 44.8022 194.239 44.9097 194.239 44.9097L194.228 44.8943Z" fill="white" fill-opacity="0.4"/>
<path d="M193.555 36.6228C193.434 37.5396 193.15 38.1593 192.861 38.7227C192.566 39.2912 192.335 39.7778 192.43 40.4077C192.472 40.7253 192.609 41.1606 192.819 41.6267C193.014 42.0979 193.261 42.5998 193.529 43.0454C193.787 43.5012 194.039 43.911 194.25 44.1978C194.455 44.4846 194.581 44.669 194.581 44.669C194.581 44.669 194.702 44.1261 194.791 43.4449C194.902 42.7535 194.996 41.934 194.902 41.3091C194.865 41.0121 194.718 40.5255 194.56 39.9673C194.428 39.3988 194.218 38.779 194.097 38.2054C194.029 37.9186 193.955 37.6523 193.892 37.4167C193.829 37.1811 193.792 36.9762 193.745 36.8174C193.655 36.5101 193.587 36.3974 193.561 36.6228H193.555Z" fill="white" fill-opacity="0.4"/>
<path d="M191.578 39.9828C191.578 39.9828 191.489 39.7779 191.378 39.4399C191.262 39.1019 191.099 38.646 190.926 38.1492C190.779 37.6422 190.6 37.1044 190.431 36.6178C190.289 36.1261 190.137 35.6857 189.984 35.3886C189.69 34.7945 189.248 34.477 188.712 34.057C188.165 33.6421 187.628 33.1095 187.186 32.0749C186.981 31.5525 187.06 32.7151 187.365 34.1389C187.533 34.8457 187.728 35.6242 187.991 36.2798C188.112 36.6076 188.233 36.9149 188.343 37.1761C188.464 37.4322 188.58 37.6422 188.675 37.7907C188.875 38.1031 189.153 38.4104 189.453 38.687C189.769 38.9584 190.116 39.194 190.426 39.3887C190.742 39.5833 191.026 39.7369 191.231 39.8394C191.441 39.9418 191.578 39.993 191.578 39.993V39.9828Z" fill="white" fill-opacity="0.4"/>
<path d="M192.724 31.7931C192.446 32.6484 191.951 33.1964 191.578 33.683C191.194 34.1695 190.81 34.5998 190.778 35.2348C190.763 35.5524 190.81 36.0031 190.889 36.505C190.989 37.0018 191.141 37.5396 191.278 38.0364C191.441 38.5281 191.62 38.9788 191.746 39.3066C191.867 39.6344 191.972 39.8341 191.972 39.8341C191.972 39.8341 192.025 39.7061 192.109 39.5012C192.199 39.2912 192.325 38.9993 192.446 38.6766C192.572 38.354 192.693 37.9954 192.793 37.642C192.909 37.2835 192.993 36.9301 193.008 36.6177C193.019 36.4692 193.008 36.2694 192.993 36.039C192.993 35.8034 192.982 35.5319 192.966 35.2451C192.914 34.6715 192.919 34.021 192.893 33.4423C192.877 32.2796 192.872 31.3782 192.719 31.7982L192.724 31.7931Z" fill="white" fill-opacity="0.4"/>
<path d="M190.073 34.8098C190.073 34.8098 190.047 34.5896 190.005 34.2362C189.963 33.8828 189.878 33.4013 189.847 32.8789C189.721 31.8341 189.694 30.6254 189.526 29.9852C189.405 29.345 189.016 28.9352 188.59 28.4077C188.164 27.8802 187.764 27.2502 187.559 26.1388C187.475 25.5856 187.307 26.738 187.254 28.1926C187.28 28.925 187.264 29.724 187.38 30.4256C187.485 31.1273 187.575 31.7214 187.706 32.0492C187.985 32.7509 188.511 33.4782 189.074 33.9852C189.61 34.4974 190.068 34.8149 190.068 34.8149L190.073 34.8098Z" fill="white" fill-opacity="0.4"/>
<path d="M193.019 27.0811C192.561 27.8545 191.956 28.2796 191.467 28.6689C190.978 29.0581 190.536 29.3962 190.331 30.0108C190.168 30.6202 190.1 31.8187 190.21 32.8482C190.231 33.3655 190.326 33.8367 190.384 34.1849C190.447 34.5281 190.484 34.7432 190.484 34.7432C190.484 34.7432 190.826 34.2925 191.199 33.7086C191.551 33.1247 192.046 32.418 192.193 31.8238C192.261 31.5421 192.382 31.0453 192.467 30.482C192.54 29.9186 192.719 29.2835 192.803 28.715C193.077 27.5882 193.256 26.7021 193.014 27.0811H193.019Z" fill="white" fill-opacity="0.4"/>
<path d="M189.769 29.2733C189.769 29.2733 189.79 29.048 189.827 28.6946C189.843 28.3412 189.932 27.8597 190.001 27.3373C190.032 27.0761 190.069 26.8047 190.101 26.5383C190.148 26.272 190.195 26.0057 190.237 25.7496C190.327 25.2425 190.348 24.7714 190.379 24.4487C190.411 23.7982 190.127 23.3117 189.832 22.7022C189.554 22.103 189.296 21.3962 189.359 20.2745C189.396 19.7162 188.986 20.802 188.586 22.1951C188.439 22.9071 188.265 23.6907 188.181 24.3872C188.118 25.0889 188.092 25.6984 188.113 26.0415C188.197 26.7842 188.596 27.619 188.975 28.2336C189.391 28.8533 189.764 29.2682 189.764 29.2682L189.769 29.2733Z" fill="white" fill-opacity="0.4"/>
<path d="M191.157 24.6585C190.973 24.93 190.847 25.3653 190.694 25.8468C190.621 26.0875 190.552 26.3487 190.489 26.6048C190.447 26.8711 190.405 27.1323 190.363 27.3884C190.284 27.9006 190.21 28.3769 190.21 28.7251C190.195 29.0734 190.189 29.2937 190.189 29.2937C190.189 29.2937 190.621 28.93 191.11 28.4486C191.641 27.9671 192.23 27.3833 192.535 26.8404C192.693 26.5843 192.903 26.1233 193.119 25.5958C193.35 25.0683 193.645 24.4844 193.866 23.9466C194.413 22.9018 194.776 22.0669 194.46 22.3896C193.829 23.0503 193.151 23.3371 192.572 23.6035C192.009 23.8749 191.499 24.1105 191.162 24.6585H191.157Z" fill="white" fill-opacity="0.4"/>
<path d="M190.783 23.7879C190.783 23.7879 190.852 23.5882 190.957 23.2706C191.046 22.948 191.241 22.5331 191.414 22.067C191.741 21.1298 192.24 20.1054 192.356 19.4908C192.487 18.8865 192.356 18.405 192.193 17.8007C192.046 17.2014 191.893 16.4793 192.177 15.5062C192.245 15.2603 192.135 15.3628 191.93 15.6701C191.825 15.8237 191.699 16.0286 191.551 16.2693C191.42 16.5203 191.283 16.8071 191.141 17.1144C190.531 18.3128 190.052 19.8801 189.952 20.5049C189.889 21.2015 190.068 22.0363 190.278 22.6765C190.52 23.327 190.778 23.7828 190.778 23.7828L190.783 23.7879Z" fill="white" fill-opacity="0.4"/>
<path d="M196.558 18.3129C195.801 18.8045 195.164 18.9838 194.581 19.1323C194.002 19.2809 193.46 19.3935 193.061 19.8442C192.682 20.3052 192.098 21.2834 191.767 22.2002C191.588 22.6561 191.409 23.0709 191.335 23.3936C191.246 23.7111 191.193 23.9109 191.193 23.9109C191.193 23.9109 191.661 23.665 192.219 23.327C192.808 22.9941 193.487 22.5792 193.876 22.1285C194.281 21.7188 195.012 20.5715 195.717 19.6804C195.88 19.4499 196.032 19.2348 196.169 19.0453C196.316 18.8609 196.442 18.697 196.532 18.5689C196.711 18.3129 196.753 18.1951 196.569 18.318L196.558 18.3129Z" fill="white" fill-opacity="0.4"/>
<path d="M192.866 18.9478C192.866 18.9478 193.292 18.2462 193.797 17.4267C194.344 16.6328 194.907 15.6751 195.175 15.1424C195.664 14.0515 194.828 13.1091 195.622 11.3114C195.822 10.8658 195.143 11.6289 194.386 12.6687C194.028 13.2116 193.65 13.8159 193.334 14.3537C193.024 14.8966 192.819 15.4088 192.719 15.7007C192.619 16.0182 192.566 16.3768 192.55 16.7404C192.54 17.104 192.582 17.483 192.629 17.8108C192.724 18.4664 192.871 18.9478 192.871 18.9478H192.866Z" fill="white" fill-opacity="0.4"/>
<path d="M195.796 15.5933C195.297 15.9364 194.666 16.8378 194.119 17.6163C193.856 18.0107 193.656 18.4051 193.493 18.6816C193.34 18.9633 193.24 19.1426 193.24 19.1426C193.24 19.1426 193.745 19.0043 194.35 18.7841C194.655 18.6765 194.976 18.5382 195.297 18.3999C195.623 18.2617 195.928 18.1029 196.165 17.9236C196.396 17.7597 196.712 17.4115 197.117 17.0376C197.527 16.6637 197.969 16.2283 198.358 15.8289C199.184 15.0606 199.809 14.4409 199.415 14.6304C197.821 15.4089 196.754 14.8711 195.802 15.5933H195.796Z" fill="white" fill-opacity="0.4"/>
<path d="M195.717 15.0759C195.817 15.0759 196.291 15.0401 196.89 14.7789C197.495 14.5177 198.284 14.0823 199.004 13.1655C199.346 12.7968 199.962 11.8544 200.572 10.9478C201.203 10.0669 201.782 9.1911 201.881 8.88892C201.571 8.94013 200.603 9.38572 199.594 9.91838C198.605 10.4715 197.611 11.1527 197.195 11.4959C196.296 12.3665 195.875 13.2014 195.738 13.8621C195.607 14.5279 195.696 14.9735 195.717 15.0708V15.0759Z" fill="white" fill-opacity="0.4"/>
<path d="M232.946 43.7778C232.072 44.541 231.331 44.8022 230.637 44.961C229.948 45.1248 229.395 45.2375 228.854 45.6575C228.617 45.8419 228.338 46.1441 228.028 46.477C228.086 46.4104 228.138 46.3387 228.186 46.267C228.054 46.4411 227.923 46.5794 227.786 46.7228C228.154 46.2567 228.407 45.7753 228.549 45.4424C228.806 44.8329 228.643 44.2593 228.496 43.6344C228.354 43.0147 228.149 42.2874 228.28 41.3502C228.328 40.879 227.912 41.7394 227.37 42.8355C226.844 43.9417 226.082 45.2375 225.856 45.8112C225.666 46.3489 225.551 47.0301 225.503 47.6857C225.445 48.331 225.409 48.8995 225.403 49.1556C223.399 50.9431 221.059 52.4181 218.492 53.2069L218.66 53.7037C219.986 53.2427 221.217 52.5923 222.369 51.8343C223.526 51.0865 224.578 50.2004 225.556 49.2529C225.84 49.2478 226.455 49.2427 227.118 49.1146C227.775 48.9815 228.543 48.7766 229.064 48.413C229.669 48.0237 230.978 46.774 231.873 45.5858C232.783 44.4078 233.366 43.3783 232.946 43.7676V43.7778Z" fill="white" fill-opacity="0.4"/>
<path d="M229.069 44.669C229.069 44.669 229.195 44.4897 229.401 44.1978C229.611 43.911 229.863 43.5012 230.121 43.0454C230.395 42.5998 230.637 42.0928 230.831 41.6267C231.042 41.1657 231.178 40.7304 231.22 40.4077C231.315 39.7778 231.089 39.2912 230.789 38.7227C230.5 38.1593 230.211 37.5345 230.095 36.6228C230.069 36.3974 230 36.5101 229.911 36.8174C229.863 36.9711 229.827 37.1811 229.764 37.4167C229.695 37.6523 229.627 37.9186 229.558 38.2054C229.437 38.7842 229.227 39.3988 229.096 39.9673C228.938 40.5255 228.79 41.0121 228.754 41.3091C228.659 41.934 228.754 42.7535 228.864 43.4449C228.959 44.121 229.075 44.669 229.075 44.669H229.069Z" fill="white" fill-opacity="0.4"/>
<path d="M235.428 38.0928C234.808 39.0147 234.098 39.3886 233.503 39.6908C232.914 39.993 232.367 40.1978 231.962 40.7203C231.762 40.9815 231.526 41.3861 231.252 41.8265C230.994 42.2721 230.721 42.774 230.442 43.2196C230.174 43.6755 229.932 44.1006 229.732 44.3976C229.543 44.6998 229.422 44.8893 229.422 44.8893C229.422 44.8893 229.974 44.7818 230.684 44.5308C231.373 44.2747 232.215 43.8547 232.735 43.3221C232.972 43.066 233.346 42.5897 233.729 41.9956C234.087 41.3963 234.513 40.71 234.802 40.0442C234.955 39.7164 235.097 39.404 235.218 39.1223C235.334 38.8406 235.407 38.5896 235.47 38.395C235.586 38.0109 235.597 37.8521 235.439 38.0775L235.428 38.0928Z" fill="white" fill-opacity="0.4"/>
<path d="M231.678 39.8342C231.678 39.8342 231.783 39.6396 231.904 39.3067C232.031 38.9789 232.209 38.5333 232.372 38.0365C232.514 37.5346 232.662 36.9968 232.762 36.5051C232.841 36.0032 232.883 35.5525 232.872 35.2349C232.841 34.5998 232.457 34.1645 232.073 33.6831C231.699 33.2016 231.205 32.6536 230.926 31.7932C230.773 31.3681 230.768 32.2746 230.752 33.4372C230.726 34.016 230.731 34.6664 230.679 35.2401C230.663 35.5269 230.653 35.7983 230.653 36.0339C230.637 36.2695 230.631 36.4641 230.637 36.6127C230.653 36.9251 230.737 37.2785 230.852 37.637C230.947 37.9904 231.073 38.3489 231.2 38.6716C231.326 38.9943 231.447 39.2862 231.536 39.4962C231.62 39.7011 231.673 39.8291 231.673 39.8291L231.678 39.8342Z" fill="white" fill-opacity="0.4"/>
<path d="M236.458 32.0695C236.016 33.1041 235.48 33.6367 234.933 34.0516C234.391 34.4716 233.955 34.7891 233.66 35.3832C233.513 35.6803 233.36 36.1208 233.213 36.6124C233.045 37.099 232.866 37.6368 232.719 38.1438C232.545 38.6406 232.382 39.1016 232.266 39.4345C232.156 39.7725 232.066 39.9774 232.066 39.9774C232.066 39.9774 232.198 39.9262 232.414 39.8237C232.619 39.7213 232.903 39.5677 233.218 39.373C233.529 39.1784 233.876 38.9377 234.191 38.6714C234.491 38.3948 234.77 38.0875 234.97 37.7751C235.064 37.6265 235.18 37.4166 235.301 37.1605C235.412 36.8993 235.532 36.5971 235.653 36.2642C235.916 35.6086 236.111 34.8301 236.279 34.1233C236.584 32.6995 236.663 31.5369 236.458 32.0593V32.0695Z" fill="white" fill-opacity="0.4"/>
<path d="M233.155 34.7432C233.155 34.7432 233.192 34.5281 233.255 34.1849C233.313 33.8418 233.407 33.3706 233.428 32.8482C233.539 31.8187 233.47 30.6202 233.307 30.0108C233.102 29.4013 232.66 29.0581 232.171 28.6689C231.682 28.2796 231.077 27.8545 230.62 27.0811C230.378 26.7021 230.557 27.5882 230.83 28.715C230.914 29.2835 231.093 29.9134 231.167 30.482C231.251 31.0453 231.377 31.5421 231.44 31.8238C231.587 32.4231 232.087 33.1299 232.434 33.7086C232.808 34.2874 233.15 34.7432 233.15 34.7432H233.155Z" fill="white" fill-opacity="0.4"/>
<path d="M236.084 26.1388C235.885 27.2502 235.485 27.8853 235.054 28.4077C234.627 28.9352 234.238 29.345 234.117 29.9852C233.949 30.6305 233.923 31.8341 233.796 32.8789C233.765 33.4065 233.686 33.8828 233.639 34.2362C233.597 34.5896 233.57 34.8098 233.57 34.8098C233.57 34.8098 234.028 34.4923 234.564 33.9801C235.127 33.473 235.653 32.7458 235.932 32.0441C236.063 31.7163 236.153 31.1222 236.258 30.4205C236.374 29.7188 236.358 28.9199 236.384 28.1875C236.337 26.7329 236.163 25.5805 236.079 26.1337L236.084 26.1388Z" fill="white" fill-opacity="0.4"/>
<path d="M233.455 29.2988C233.455 29.2988 233.445 29.0785 233.434 28.7303C233.434 28.382 233.36 27.9057 233.281 27.3935C233.239 27.1374 233.197 26.8711 233.155 26.6099C233.092 26.3487 233.019 26.0926 232.95 25.8519C232.798 25.3704 232.677 24.93 232.487 24.6636C232.145 24.1156 231.641 23.88 231.078 23.6086C230.499 23.3422 229.821 23.0554 229.19 22.3947C228.874 22.0721 229.237 22.9069 229.784 23.9517C230.005 24.4895 230.299 25.0734 230.531 25.6009C230.746 26.1336 230.957 26.5945 231.115 26.8455C231.42 27.3884 232.009 27.9723 232.54 28.4537C233.029 28.9351 233.46 29.2988 233.46 29.2988H233.455Z" fill="white" fill-opacity="0.4"/>
<path d="M233.266 24.4536C233.298 24.7763 233.319 25.2475 233.408 25.7546C233.455 26.0106 233.497 26.2719 233.545 26.5433C233.582 26.8148 233.613 27.0862 233.645 27.3423C233.713 27.8647 233.803 28.341 233.818 28.6995C233.85 29.0529 233.876 29.2783 233.876 29.2783C233.876 29.2783 234.255 28.8685 234.665 28.2437C235.039 27.6291 235.444 26.7943 235.528 26.0516C235.554 25.7085 235.528 25.1041 235.459 24.3973C235.38 23.7008 235.207 22.9171 235.054 22.2052C234.655 20.8121 234.25 19.7314 234.286 20.2846C234.344 21.4011 234.092 22.1079 233.813 22.7123C233.519 23.3166 233.235 23.8032 233.266 24.4588V24.4536Z" fill="white" fill-opacity="0.4"/>
<path d="M232.457 23.9109C232.457 23.9109 232.399 23.7111 232.315 23.3936C232.241 23.0709 232.057 22.656 231.883 22.2002C231.552 21.2783 230.974 20.3052 230.59 19.8442C230.19 19.3935 229.648 19.2809 229.07 19.1323C228.486 18.9838 227.849 18.8097 227.092 18.3129C226.908 18.1899 226.95 18.3077 227.129 18.5638C227.218 18.6919 227.339 18.8558 227.492 19.0401C227.628 19.2296 227.781 19.4499 227.944 19.6752C228.649 20.5664 229.38 21.7137 229.785 22.1234C230.169 22.5741 230.847 22.989 231.442 23.3219C231.999 23.6599 232.467 23.9057 232.467 23.9057L232.457 23.9109Z" fill="white" fill-opacity="0.4"/>
<path d="M231.462 15.5113C231.751 16.4844 231.599 17.2015 231.446 17.8058C231.289 18.4102 231.152 18.8916 231.283 19.496C231.399 20.1106 231.899 21.1298 232.225 22.0722C232.398 22.5383 232.593 22.9531 232.682 23.2758C232.788 23.5933 232.856 23.7931 232.856 23.7931C232.856 23.7931 233.114 23.3372 233.356 22.6868C233.566 22.0517 233.745 21.2117 233.682 20.5152C233.582 19.8903 233.108 18.3231 232.493 17.1246C232.351 16.8224 232.209 16.5305 232.083 16.2795C231.941 16.0388 231.809 15.834 231.709 15.6803C231.499 15.373 231.394 15.2706 231.462 15.5164V15.5113Z" fill="white" fill-opacity="0.4"/>
<path d="M230.41 19.1423C230.41 19.1423 230.315 18.9631 230.157 18.6814C229.994 18.4048 229.8 18.0104 229.531 17.6161C228.979 16.8376 228.348 15.9362 227.854 15.593C226.902 14.876 225.834 15.4086 224.24 14.6301C223.846 14.4406 224.472 15.0604 225.297 15.8286C225.687 16.2281 226.128 16.6634 226.539 17.0373C226.938 17.4163 227.259 17.7595 227.491 17.9234C227.727 18.1026 228.032 18.2614 228.359 18.3997C228.679 18.538 228.995 18.6763 229.305 18.7838C229.91 19.0041 230.415 19.1423 230.415 19.1423H230.41Z" fill="white" fill-opacity="0.4"/>
<path d="M228.469 15.1424C228.738 15.67 229.3 16.6277 229.847 17.4267C230.352 18.2513 230.778 18.9479 230.778 18.9479C230.778 18.9479 230.926 18.4664 231.02 17.8108C231.062 17.4831 231.11 17.1041 231.099 16.7404C231.083 16.3768 231.031 16.0183 230.931 15.7007C230.831 15.4088 230.626 14.8966 230.316 14.3537C230 13.8159 229.621 13.2116 229.264 12.6687C228.506 11.629 227.828 10.8607 228.028 11.3114C228.822 13.1091 227.985 14.0515 228.475 15.1424H228.469Z" fill="white" fill-opacity="0.4"/>
<path d="M227.928 15.0759C227.949 14.9786 228.044 14.533 227.907 13.8672C227.77 13.2065 227.349 12.3717 226.45 11.501C226.034 11.1578 225.04 10.4715 224.052 9.9235C223.042 9.39085 222.074 8.94526 221.764 8.89404C221.864 9.19622 222.442 10.072 223.073 10.953C223.683 11.8544 224.299 12.7968 224.641 13.1707C225.356 14.0874 226.145 14.5228 226.755 14.784C227.355 15.0452 227.828 15.0759 227.928 15.081V15.0759Z" fill="white" fill-opacity="0.4"/>
<mask id="mask4_40000049_9332" style="mask-type:alpha" maskUnits="userSpaceOnUse" x="180" y="0" width="63" height="63">
<path d="M243 31.1111C243 48.2933 228.897 62.2222 211.5 62.2222C194.103 62.2222 180 48.2933 180 31.1111C180 13.9289 194.103 0 211.5 0C228.897 0 243 13.9289 243 31.1111Z" fill="#CABD4D"/>
</mask>
<g mask="url(#mask4_40000049_9332)">
<path d="M174.857 37.2954L224.374 -11.6099L227.556 -8.46721L178.039 40.4381L174.857 37.2954Z" fill="white" fill-opacity="0.2"/>
<path d="M181.928 48.9053L231.444 -4.79689e-05L241.047 9.48356L191.53 58.3889L181.928 48.9053Z" fill="white" fill-opacity="0.2"/>
</g>
<defs>
<linearGradient id="paint0_linear_40000049_9332" x1="4.28572" y1="25.6327" x2="37.4896" y2="51.0203" gradientUnits="userSpaceOnUse">
<stop offset="0.338918" stop-color="#E0783D"/>
<stop offset="1" stop-color="#B46131"/>
</linearGradient>
<linearGradient id="paint1_linear_40000049_9332" x1="5" y1="22" x2="38.449" y2="49.9738" gradientUnits="userSpaceOnUse">
<stop stop-opacity="0.5"/>
<stop offset="1" stop-color="white" stop-opacity="0.5"/>
</linearGradient>
<linearGradient id="paint2_linear_40000049_9332" x1="4.28572" y1="25.6327" x2="37.4896" y2="51.0203" gradientUnits="userSpaceOnUse">
<stop offset="0.338918" stop-color="#F8E542"/>
<stop offset="1" stop-color="#BAAC32"/>
</linearGradient>
<linearGradient id="paint3_linear_40000049_9332" x1="64.2857" y1="25.6327" x2="97.4896" y2="51.0203" gradientUnits="userSpaceOnUse">
<stop offset="0.338918" stop-color="#7E7CE9"/>
<stop offset="1" stop-color="#5351BC"/>
</linearGradient>
<linearGradient id="paint4_linear_40000049_9332" x1="65" y1="22" x2="98.449" y2="49.9738" gradientUnits="userSpaceOnUse">
<stop stop-opacity="0.5"/>
<stop offset="1" stop-color="white" stop-opacity="0.5"/>
</linearGradient>
<linearGradient id="paint5_linear_40000049_9332" x1="64.2857" y1="25.6327" x2="97.4896" y2="51.0203" gradientUnits="userSpaceOnUse">
<stop offset="0.338918" stop-color="#F8E542"/>
<stop offset="1" stop-color="#BAAC32"/>
</linearGradient>
<linearGradient id="paint6_linear_40000049_9332" x1="124.286" y1="25.6327" x2="157.49" y2="51.0203" gradientUnits="userSpaceOnUse">
<stop offset="0.338918" stop-color="#F8E542"/>
<stop offset="1" stop-color="#BAAC32"/>
</linearGradient>
<linearGradient id="paint7_linear_40000049_9332" x1="125" y1="22" x2="158.449" y2="49.9738" gradientUnits="userSpaceOnUse">
<stop stop-opacity="0.5"/>
<stop offset="1" stop-color="white" stop-opacity="0.5"/>
</linearGradient>
<linearGradient id="paint8_linear_40000049_9332" x1="124.286" y1="25.6327" x2="157.49" y2="51.0203" gradientUnits="userSpaceOnUse">
<stop offset="0.338918" stop-color="#F8E542"/>
<stop offset="1" stop-color="#BAAC32"/>
</linearGradient>
<linearGradient id="paint9_linear_40000049_9332" x1="186.75" y1="10.7936" x2="234.785" y2="51.699" gradientUnits="userSpaceOnUse">
<stop offset="0.338918" stop-color="#F8E542"/>
<stop offset="1" stop-color="#BAAC32"/>
</linearGradient>
<linearGradient id="paint10_linear_40000049_9332" x1="193.179" y1="11.1112" x2="231.93" y2="48.4173" gradientUnits="userSpaceOnUse">
<stop stop-opacity="0.5"/>
<stop offset="1" stop-color="white" stop-opacity="0.5"/>
</linearGradient>
<linearGradient id="paint11_linear_40000049_9332" x1="202.978" y1="21.1739" x2="221.002" y2="38.5256" gradientUnits="userSpaceOnUse">
<stop offset="0.229195" stop-color="white" stop-opacity="0.4"/>
<stop offset="0.841257" stop-opacity="0.4"/>
</linearGradient>
</defs>
</svg>
