<svg width="16" height="16" viewBox="0 0 16 16" fill="none" xmlns="http://www.w3.org/2000/svg">
<path d="M9.50087 5.00001C9.50087 4.86741 9.55355 4.74023 9.64732 4.64646C9.74109 4.55269 9.86826 4.50001 10.0009 4.50001H15.5009C15.6335 4.50001 15.7607 4.55269 15.8544 4.64646C15.9482 4.74023 16.0009 4.86741 16.0009 5.00001C16.0009 5.13262 15.9482 5.2598 15.8544 5.35357C15.7607 5.44734 15.6335 5.50001 15.5009 5.50001H10.0009C9.86826 5.50001 9.74109 5.44734 9.64732 5.35357C9.55355 5.2598 9.50087 5.13262 9.50087 5.00001ZM15.5009 7.50001H10.0009C9.86826 7.50001 9.74109 7.55269 9.64732 7.64646C9.55355 7.74023 9.50087 7.86741 9.50087 8.00001C9.50087 8.13262 9.55355 8.2598 9.64732 8.35357C9.74109 8.44734 9.86826 8.50001 10.0009 8.50001H15.5009C15.6335 8.50001 15.7607 8.44734 15.8544 8.35357C15.9482 8.2598 16.0009 8.13262 16.0009 8.00001C16.0009 7.86741 15.9482 7.74023 15.8544 7.64646C15.7607 7.55269 15.6335 7.50001 15.5009 7.50001ZM15.5009 10.5H11.5009C11.3683 10.5 11.2411 10.5527 11.1473 10.6465C11.0535 10.7402 11.0009 10.8674 11.0009 11C11.0009 11.1326 11.0535 11.2598 11.1473 11.3536C11.2411 11.4473 11.3683 11.5 11.5009 11.5H15.5009C15.6335 11.5 15.7607 11.4473 15.8544 11.3536C15.9482 11.2598 16.0009 11.1326 16.0009 11C16.0009 10.8674 15.9482 10.7402 15.8544 10.6465C15.7607 10.5527 15.6335 10.5 15.5009 10.5ZM9.48525 11.875C9.50159 11.9386 9.50524 12.0048 9.496 12.0699C9.48675 12.1349 9.46478 12.1974 9.43135 12.254C9.39792 12.3105 9.35368 12.3599 9.30116 12.3993C9.24864 12.4387 9.18886 12.4674 9.12525 12.4838C9.08449 12.4947 9.04245 12.5002 9.00025 12.5C8.88935 12.5001 8.78159 12.4633 8.69391 12.3954C8.60622 12.3275 8.54359 12.2324 8.51587 12.125C8.13087 10.6288 6.61962 9.50001 5.00025 9.50001C3.38087 9.50001 1.86962 10.6281 1.48462 12.125C1.45147 12.2535 1.36864 12.3635 1.25436 12.4309C1.14008 12.4983 1.00371 12.5175 0.875245 12.4844C0.746781 12.4512 0.636748 12.3684 0.569352 12.2541C0.501956 12.1399 0.482718 12.0035 0.51587 11.875C0.865245 10.5181 1.88087 9.41939 3.16962 8.87501C2.67339 8.4928 2.30924 7.96485 2.12824 7.36521C1.94723 6.76557 1.95846 6.12432 2.16034 5.53138C2.36222 4.93844 2.74462 4.42356 3.25393 4.05895C3.76323 3.69434 4.37388 3.49829 5.00025 3.49829C5.62661 3.49829 6.23726 3.69434 6.74657 4.05895C7.25587 4.42356 7.63828 4.93844 7.84016 5.53138C8.04203 6.12432 8.05326 6.76557 7.87226 7.36521C7.69125 7.96485 7.3271 8.4928 6.83087 8.87501C8.12025 9.41939 9.13587 10.5181 9.48525 11.875ZM5.00087 8.50001C5.39643 8.50001 5.78311 8.38272 6.11201 8.16295C6.44091 7.94319 6.69725 7.63083 6.84863 7.26538C7.00001 6.89993 7.03961 6.4978 6.96244 6.10983C6.88527 5.72187 6.69479 5.36551 6.41508 5.0858C6.13538 4.8061 5.77901 4.61561 5.39105 4.53844C5.00309 4.46127 4.60096 4.50088 4.2355 4.65225C3.87005 4.80363 3.55769 5.05998 3.33793 5.38887C3.11817 5.71777 3.00087 6.10445 3.00087 6.50001C3.00087 7.03045 3.21158 7.53915 3.58666 7.91423C3.96173 8.2893 4.47044 8.50001 5.00087 8.50001Z" fill="#595959"/>
</svg>
