<svg width="21" height="20" viewBox="0 0 21 20" fill="none" xmlns="http://www.w3.org/2000/svg">
<path d="M11.9998 12.3187C12.9796 11.7085 13.734 10.7957 14.1488 9.7186C14.5636 8.64146 14.6164 7.45852 14.299 6.34874C13.9817 5.23897 13.3115 4.26273 12.3899 3.56775C11.4684 2.87276 10.3455 2.49683 9.19124 2.49683C8.03698 2.49683 6.91412 2.87276 5.99254 3.56775C5.07097 4.26273 4.40081 5.23897 4.08347 6.34874C3.76612 7.45852 3.81885 8.64146 4.23369 9.7186C4.64852 10.7957 5.40288 11.7085 6.38265 12.3187C4.76936 12.8468 3.3178 13.8335 2.15061 15.2226C2.09593 15.2851 2.05426 15.358 2.02804 15.4368C2.00182 15.5156 1.99158 15.5989 1.99791 15.6817C2.00425 15.7645 2.02704 15.8453 2.06495 15.9192C2.10285 15.9931 2.15511 16.0588 2.21868 16.1122C2.28224 16.1657 2.35583 16.206 2.43515 16.2307C2.51446 16.2555 2.5979 16.2641 2.6806 16.2562C2.7633 16.2483 2.84359 16.224 2.91678 16.1847C2.98997 16.1454 3.05459 16.0919 3.10686 16.0273C4.67561 14.1554 6.83655 13.125 9.18733 13.125C11.5381 13.125 13.6991 14.1554 15.2709 16.0273C15.3776 16.1543 15.5304 16.2337 15.6957 16.2481C15.861 16.2624 16.0252 16.2106 16.1522 16.1039C16.2792 15.9971 16.3586 15.8444 16.373 15.6791C16.3873 15.5138 16.3354 15.3496 16.2287 15.2226C15.0608 13.8335 13.6092 12.8468 11.9998 12.3187ZM5.12483 7.81245C5.12483 7.00896 5.36309 6.22352 5.80949 5.55545C6.25588 4.88737 6.89036 4.36667 7.63268 4.05919C8.37501 3.75171 9.19184 3.67126 9.97989 3.82801C10.7679 3.98476 11.4918 4.37168 12.06 4.93983C12.6281 5.50798 13.015 6.23185 13.1718 7.0199C13.3285 7.80794 13.2481 8.62478 12.9406 9.3671C12.6331 10.1094 12.1124 10.7439 11.4443 11.1903C10.7763 11.6367 9.99082 11.875 9.18733 11.875C8.11027 11.8737 7.07768 11.4453 6.31608 10.6837C5.55448 9.9221 5.12607 8.88951 5.12483 7.81245ZM20.4569 11.1773L20.0928 10.9671C20.1355 10.741 20.1355 10.5089 20.0928 10.2828L20.4569 10.0726C20.528 10.0316 20.5903 9.97693 20.6403 9.91181C20.6902 9.84668 20.7269 9.77235 20.7482 9.69306C20.7694 9.61377 20.7749 9.53107 20.7641 9.44968C20.7534 9.36828 20.7268 9.2898 20.6858 9.2187C20.6447 9.1476 20.5901 9.08528 20.525 9.0353C20.4598 8.98532 20.3855 8.94865 20.3062 8.9274C20.2269 8.90614 20.1442 8.90071 20.0628 8.91142C19.9814 8.92212 19.903 8.94876 19.8319 8.98979L19.467 9.20073C19.2924 9.05093 19.0917 8.93466 18.8748 8.85776V8.43745C18.8748 8.27169 18.809 8.11272 18.6918 7.99551C18.5746 7.8783 18.4156 7.81245 18.2498 7.81245C18.0841 7.81245 17.9251 7.8783 17.8079 7.99551C17.6907 8.11272 17.6248 8.27169 17.6248 8.43745V8.85776C17.408 8.93466 17.2072 9.05093 17.0326 9.20073L16.6678 8.98979C16.5967 8.94876 16.5182 8.92212 16.4368 8.91142C16.3554 8.90071 16.2727 8.90614 16.1934 8.9274C16.1141 8.94865 16.0398 8.98532 15.9747 9.0353C15.9096 9.08528 15.8549 9.1476 15.8139 9.2187C15.7729 9.2898 15.7462 9.36828 15.7355 9.44968C15.7248 9.53107 15.7302 9.61377 15.7515 9.69306C15.7728 9.77235 15.8094 9.84668 15.8594 9.91181C15.9094 9.97693 15.9717 10.0316 16.0428 10.0726L16.4069 10.2828C16.3642 10.5089 16.3642 10.741 16.4069 10.9671L16.0428 11.1773C15.9717 11.2183 15.9094 11.273 15.8594 11.3381C15.8094 11.4032 15.7728 11.4775 15.7515 11.5568C15.7302 11.6361 15.7248 11.7188 15.7355 11.8002C15.7462 11.8816 15.7729 11.9601 15.8139 12.0312C15.8549 12.1023 15.9096 12.1646 15.9747 12.2146C16.0398 12.2646 16.1141 12.3012 16.1934 12.3225C16.2727 12.3438 16.3554 12.3492 16.4368 12.3385C16.5182 12.3278 16.5967 12.3011 16.6678 12.2601L17.0326 12.0492C17.2072 12.199 17.408 12.3152 17.6248 12.3921V12.8125C17.6248 12.9782 17.6907 13.1372 17.8079 13.2544C17.9251 13.3716 18.0841 13.4375 18.2498 13.4375C18.4156 13.4375 18.5746 13.3716 18.6918 13.2544C18.809 13.1372 18.8748 12.9782 18.8748 12.8125V12.3921C19.0917 12.3152 19.2924 12.199 19.467 12.0492L19.8319 12.2601C19.9268 12.3152 20.0346 12.344 20.1444 12.3437C20.282 12.3438 20.4158 12.2984 20.525 12.2146C20.6342 12.1309 20.7127 12.0134 20.7483 11.8804C20.7839 11.7475 20.7747 11.6065 20.722 11.4794C20.6693 11.3522 20.5761 11.2461 20.4569 11.1773ZM17.6248 10.625C17.6248 10.5013 17.6615 10.3805 17.7302 10.2777C17.7988 10.1749 17.8965 10.0948 18.0107 10.0475C18.1249 10.0002 18.2505 9.98784 18.3718 10.012C18.493 10.0361 18.6044 10.0956 18.6918 10.183C18.7792 10.2704 18.8387 10.3818 18.8628 10.503C18.8869 10.6243 18.8746 10.7499 18.8273 10.8641C18.78 10.9783 18.6998 11.0759 18.5971 11.1446C18.4943 11.2133 18.3734 11.25 18.2498 11.25C18.0841 11.25 17.9251 11.1841 17.8079 11.0669C17.6907 10.9497 17.6248 10.7907 17.6248 10.625Z" fill="#410075"/>
</svg>
