<svg width="20" height="21" viewBox="0 0 20 21" fill="none" xmlns="http://www.w3.org/2000/svg">
<g id="BellSimple">
<path id="Vector" d="M13.1292 18C13.1292 18.1658 13.0633 18.3247 12.9461 18.4419C12.8289 18.5592 12.6699 18.625 12.5042 18.625H7.50417C7.33841 18.625 7.17944 18.5592 7.06223 18.4419C6.94502 18.3247 6.87917 18.1658 6.87917 18C6.87917 17.8342 6.94502 17.6753 7.06223 17.5581C7.17944 17.4408 7.33841 17.375 7.50417 17.375H12.5042C12.6699 17.375 12.8289 17.4408 12.9461 17.5581C13.0633 17.6753 13.1292 17.8342 13.1292 18ZM17.3362 15.5C17.2278 15.691 17.0703 15.8497 16.8801 15.9595C16.6899 16.0694 16.4738 16.1265 16.2542 16.125H3.75417C3.53444 16.1247 3.31866 16.0665 3.12859 15.9562C2.93852 15.846 2.78088 15.6875 2.67156 15.4969C2.56223 15.3063 2.50508 15.0903 2.50587 14.8705C2.50666 14.6508 2.56536 14.4351 2.67605 14.2453C3.10964 13.4984 3.75417 11.3859 3.75417 8.625C3.75417 6.9674 4.41265 5.37769 5.58476 4.20558C6.75686 3.03348 8.34657 2.375 10.0042 2.375C11.6618 2.375 13.2515 3.03348 14.4236 4.20558C15.5957 5.37769 16.2542 6.9674 16.2542 8.625C16.2542 11.3852 16.8995 13.4984 17.3331 14.2453C17.4449 14.4354 17.504 14.6518 17.5044 14.8723C17.5048 15.0929 17.4465 15.3095 17.3354 15.5H17.3362ZM16.2542 14.875C15.6503 13.8383 15.0042 11.4414 15.0042 8.625C15.0042 7.29892 14.4774 6.02715 13.5397 5.08947C12.602 4.15178 11.3303 3.625 10.0042 3.625C8.67809 3.625 7.40632 4.15178 6.46864 5.08947C5.53096 6.02715 5.00417 7.29892 5.00417 8.625C5.00417 11.4422 4.3573 13.8391 3.75417 14.875H16.2542Z" fill="#343330"/>
</g>
</svg>
