<svg width="20" height="21" viewBox="0 0 20 21" fill="none" xmlns="http://www.w3.org/2000/svg">
<g id="ShoppingCartSimple">
<path id="Vector" d="M8.12939 17.375C8.12939 17.6222 8.05608 17.8639 7.91873 18.0695C7.78138 18.275 7.58616 18.4352 7.35775 18.5299C7.12934 18.6245 6.87801 18.6492 6.63553 18.601C6.39306 18.5527 6.17033 18.4337 5.99551 18.2589C5.8207 18.0841 5.70164 17.8613 5.65341 17.6189C5.60518 17.3764 5.62994 17.1251 5.72455 16.8966C5.81915 16.6682 5.97937 16.473 6.18493 16.3357C6.39049 16.1983 6.63217 16.125 6.87939 16.125C7.21092 16.125 7.52886 16.2567 7.76328 16.4911C7.9977 16.7255 8.12939 17.0435 8.12939 17.375ZM15.0044 16.125C14.7572 16.125 14.5155 16.1983 14.3099 16.3357C14.1044 16.473 13.9442 16.6682 13.8495 16.8966C13.7549 17.1251 13.7302 17.3764 13.7784 17.6189C13.8266 17.8613 13.9457 18.0841 14.1205 18.2589C14.2953 18.4337 14.5181 18.5527 14.7605 18.601C15.003 18.6492 15.2543 18.6245 15.4827 18.5299C15.7112 18.4352 15.9064 18.275 16.0437 18.0695C16.1811 17.8639 16.2544 17.6222 16.2544 17.375C16.2544 17.0435 16.1227 16.7255 15.8883 16.4911C15.6539 16.2567 15.3359 16.125 15.0044 16.125ZM18.7317 6.29219L16.7286 13.5016C16.6185 13.8954 16.3829 14.2425 16.0577 14.4904C15.7324 14.7383 15.3352 14.8733 14.9263 14.875H7.20439C6.79426 14.8748 6.39545 14.7405 6.06877 14.4925C5.74209 14.2446 5.50548 13.8965 5.39502 13.5016L2.65439 3.625H1.25439C1.08863 3.625 0.929663 3.55915 0.812453 3.44194C0.695243 3.32473 0.629395 3.16576 0.629395 3C0.629395 2.83424 0.695243 2.67527 0.812453 2.55806C0.929663 2.44085 1.08863 2.375 1.25439 2.375H3.12939C3.26604 2.37497 3.39892 2.41973 3.50771 2.50241C3.61649 2.58509 3.69519 2.70115 3.73174 2.83281L4.47236 5.5H18.1294C18.2257 5.49998 18.3208 5.52224 18.4071 5.56504C18.4935 5.60784 18.5687 5.67001 18.627 5.74671C18.6854 5.82341 18.7251 5.91255 18.7433 6.00718C18.7615 6.1018 18.7575 6.19935 18.7317 6.29219ZM17.3067 6.75H4.82002L6.60205 13.1672C6.6386 13.2989 6.71729 13.4149 6.82608 13.4976C6.93487 13.5803 7.06775 13.625 7.20439 13.625H14.9263C15.0629 13.625 15.1958 13.5803 15.3046 13.4976C15.4134 13.4149 15.4921 13.2989 15.5286 13.1672L17.3067 6.75Z" fill="#343330"/>
</g>
</svg>
