<svg width="54" height="55" viewBox="0 0 54 55" fill="none" xmlns="http://www.w3.org/2000/svg">
<path id="Union" fill-rule="evenodd" clip-rule="evenodd" d="M54.0091 27.4999C54.0091 42.4141 41.9187 54.5045 27.0045 54.5045C12.0903 54.5045 0 42.4141 0 27.4999C0 12.5857 12.0903 0.495361 27.0045 0.495361C41.9187 0.495361 54.0091 12.5857 54.0091 27.4999ZM45.89 35.0824C45.8865 34.1086 45.6997 33.1773 45.3617 32.3217C45.3607 32.3191 45.3646 32.317 45.3662 32.3193L45.3696 32.3242C45.3717 32.3271 45.3763 32.3246 45.3749 32.3213C45.1555 31.7911 44.9144 31.2725 44.6515 30.7653C44.6385 30.74 44.6253 30.7147 44.6119 30.6895C44.6041 30.6749 44.5964 30.6604 44.5886 30.6458L44.5752 30.621L44.5747 30.62C43.5923 28.7635 42.3244 27.0819 40.8295 25.6327C39.4289 27.0295 37.8439 29.6903 36.9509 33.0106C36.0164 36.4846 35.8428 40.6686 37.4218 44.864C40.4683 43.9999 43.032 41.9876 44.616 39.324C45.0072 38.7402 45.3133 38.0984 45.5319 37.4153C45.7635 36.6873 45.89 35.9109 45.89 35.1061V35.0824ZM37.1928 44.9265C35.6014 40.683 35.7795 36.4552 36.7226 32.9492C37.6225 29.6035 39.2221 26.904 40.6588 25.4692C40.4108 25.2344 40.1568 25.006 39.897 24.7841C39.5744 24.5087 39.2435 24.244 38.9031 23.9887C38.5273 23.7074 38.142 23.4392 37.7473 23.1851C37.0015 22.7041 36.2215 22.2727 35.412 21.8933C34.5505 21.4903 33.6558 21.1476 32.7316 20.8699C32.7186 20.8663 32.7068 20.8628 32.6938 20.8581C32.6785 20.8533 32.6631 20.8489 32.6477 20.8445C32.6324 20.84 32.617 20.8356 32.6016 20.8309C30.8254 20.3097 28.9451 20.0296 26.9998 20.0296C25.2082 20.0296 23.4709 20.2672 21.8199 20.7115C21.6344 20.7612 21.4512 20.8132 21.268 20.8687L21.2643 20.87L21.2585 20.8717L21.2551 20.8726L21.2528 20.8733L21.2491 20.8746C20.3911 21.1334 19.5567 21.449 18.7519 21.8177C17.8833 22.2148 17.0477 22.6722 16.2512 23.1851L16.2476 23.1874C16.2459 23.1885 16.2441 23.1896 16.2424 23.1907L16.2391 23.1928L16.2373 23.1939L16.2337 23.1962L16.2321 23.1972L16.2309 23.198C16.228 23.1999 16.2251 23.2018 16.2224 23.2037L16.2211 23.2047C16.2134 23.2097 16.205 23.2151 16.1973 23.2202C16.1774 23.233 16.1573 23.2459 16.1377 23.2595C16.1105 23.2773 16.0822 23.2962 16.055 23.3139C16.0278 23.3316 16.0006 23.3494 15.9746 23.3671C15.9716 23.3691 15.9694 23.3711 15.9666 23.3724L15.9639 23.3739C15.9519 23.3818 15.9402 23.3898 15.9285 23.3978C15.9164 23.4061 15.9043 23.4143 15.8919 23.4226L15.8884 23.425L15.8848 23.4273C15.8803 23.4304 15.8758 23.4335 15.8712 23.4365C15.866 23.44 15.8608 23.4435 15.8556 23.4469C15.8395 23.4577 15.8235 23.4683 15.808 23.4793L15.7265 23.5361L15.6449 23.5928L15.5634 23.6495C15.5032 23.692 15.4442 23.7345 15.3852 23.777L15.3211 23.8233C15.1875 23.9202 15.054 24.0194 14.9228 24.1211C14.6463 24.3326 14.3768 24.5513 14.1121 24.777C13.8528 24.9982 13.5993 25.226 13.3517 25.4601C14.7907 26.8925 16.3952 29.5964 17.297 32.9492C18.2405 36.4566 18.4184 40.6862 16.825 44.9314C16.8684 44.9427 16.9119 44.9539 16.9555 44.9648H16.9567H16.9579C17.381 45.109 17.8218 45.2165 18.2756 45.2827C18.642 45.3371 19.0166 45.3654 19.3984 45.3654C19.6536 45.3654 19.9065 45.3524 20.1547 45.3276H20.1559C22.3647 45.109 24.2946 43.9425 25.5344 42.2407C25.545 42.2253 25.5568 42.21 25.5675 42.1946C25.605 42.1417 25.6425 42.0886 25.6791 42.0347C25.6831 42.0288 25.6916 42.0279 25.6969 42.0327C25.7018 42.0371 25.7094 42.0368 25.7138 42.0319C26.0315 41.6767 26.4948 41.4524 27.0093 41.4524C27.5212 41.4524 27.9809 41.6731 28.2985 42.0257C28.3031 42.0308 28.311 42.0311 28.316 42.0265C28.3215 42.0215 28.3309 42.0219 28.335 42.028C29.5672 43.8452 31.5655 45.1 33.8662 45.3276C34.1144 45.3524 34.3661 45.3643 34.6202 45.3643C35.0019 45.3643 35.3765 45.3359 35.7429 45.2815C36.2085 45.213 36.66 45.1007 37.0949 44.9518C37.1276 44.9435 37.1602 44.9351 37.1928 44.9265ZM16.5959 44.8689C13.4771 43.9863 10.8633 41.9015 9.28673 39.1467C8.99009 38.6752 8.74309 38.1693 8.55518 37.6352C8.00682 36.2631 7.84727 34.2008 8.76855 31.9908C8.97353 31.5191 9.19628 31.0568 9.43593 30.605L9.43741 30.6016L9.43888 30.5981C10.4212 28.7461 11.688 27.0691 13.1809 25.6236C14.5838 27.0178 16.1737 29.683 17.0688 33.0106C18.0036 36.486 18.177 40.6719 16.5959 44.8689ZM15.8825 21.4644C15.8836 21.4431 15.8836 21.423 15.8836 21.4017C15.8836 21.2032 15.8635 21.0105 15.8245 20.8238C15.7631 20.5165 15.652 20.2258 15.5007 19.9611C15.1864 19.2591 14.7692 18.6138 14.2669 18.0442C14.2634 18.0394 14.2598 18.0359 14.2563 18.0324C14.144 17.9047 14.027 17.7806 13.9053 17.6613C13.9028 17.6588 13.9004 17.6564 13.8979 17.654C13.8954 17.6516 13.8929 17.6491 13.8903 17.6467L13.8852 17.6418C13.8784 17.6353 13.8716 17.6288 13.8651 17.6223C13.6358 17.3977 12.9456 16.7548 11.9104 16.2431L11.9092 16.2425L11.9083 16.2419C11.8339 16.2053 11.7567 16.1686 11.6787 16.1332L11.6764 16.132C11.3301 15.9878 10.9507 15.9074 10.5525 15.9074C10.3244 15.9074 10.1022 15.9346 9.88827 15.9843C9.61882 16.0469 9.36355 16.1474 9.12955 16.2797C9.05627 16.3211 8.98418 16.366 8.91446 16.4133C8.85418 16.4605 8.79745 16.5149 8.74782 16.574C8.70173 16.6343 8.658 16.6981 8.61664 16.7631C8.33182 17.2122 8.16636 17.7452 8.16636 18.3172C8.16636 18.6906 8.23727 19.0487 8.36609 19.3773L8.36668 19.379L8.36727 19.3808C8.37023 19.3885 8.37348 19.3962 8.37673 19.4039C8.37998 19.4115 8.38323 19.4192 8.38618 19.4269L8.38683 19.4277L8.38736 19.4293C8.39089 19.4387 8.39443 19.4469 8.39796 19.4552C8.6355 20.0307 8.94282 20.5709 9.308 21.0649C9.44746 21.254 9.59518 21.4348 9.75118 21.6097C9.87291 21.7468 10.0005 21.8792 10.1329 22.0068C10.6848 22.541 11.3171 22.9924 12.0108 23.3411C12.0912 23.3813 12.1715 23.4191 12.2531 23.4569C12.3618 23.5077 12.4729 23.555 12.5852 23.5999H12.5864C12.7022 23.6377 12.8204 23.6684 12.9421 23.6909C13.1182 23.724 13.299 23.7417 13.4845 23.7417C14.2078 23.7417 14.9016 23.4561 15.3636 23.0326C15.5055 22.9026 15.7915 22.2609 15.8553 21.8083C15.8706 21.6948 15.8801 21.5802 15.8825 21.4644ZM45.9255 18.3526C45.9255 18.7793 45.8333 19.1846 45.669 19.5498C45.6465 19.5995 45.6229 19.6491 45.5969 19.6975C45.5958 19.7 45.5917 19.7095 45.5857 19.7234L45.5852 19.7246C45.5594 19.7841 45.5 19.9213 45.4811 19.9564C45.4782 19.9621 45.4751 19.9677 45.472 19.9733C45.4686 19.9793 45.4652 19.9851 45.4622 19.9906C45.4303 20.0509 45.3972 20.1112 45.3629 20.1703C45.3558 20.1833 45.3475 20.1963 45.3405 20.2093C45.3377 20.2141 45.3349 20.2189 45.3321 20.2236C45.3266 20.2329 45.3211 20.242 45.3156 20.2506C45.3003 20.2777 45.2839 20.3048 45.2674 20.3319C45.2036 20.437 45.1372 20.5414 45.0686 20.643C45.0638 20.6496 45.0593 20.6563 45.0548 20.663C45.0521 20.667 45.0495 20.671 45.0468 20.6752C45.045 20.6778 45.0433 20.6805 45.0415 20.6832C45.032 20.6974 45.0214 20.7115 45.0119 20.7257C45.0025 20.7399 44.9918 20.7541 44.9824 20.7683C44.9776 20.7754 44.9726 20.7822 44.9676 20.789C44.9626 20.7957 44.9576 20.8025 44.9528 20.8096C44.9481 20.8164 44.9432 20.8231 44.9384 20.8298C44.933 20.8373 44.9275 20.8447 44.9221 20.8522C44.9118 20.8664 44.9014 20.8805 44.8914 20.8947C44.6834 21.1772 44.4565 21.4455 44.2118 21.696C44.0759 21.8355 43.9353 21.969 43.7899 22.0978C43.1505 22.6615 42.4143 23.1189 41.6106 23.4427L41.6071 23.4398L41.6035 23.4368C41.5409 23.464 41.4771 23.49 41.4121 23.5125C41.3523 23.5306 41.294 23.5465 41.2331 23.563C41.1712 23.5798 41.1066 23.5974 41.0351 23.6188L41.0321 23.6198C41.0321 23.6198 41.0289 23.62 41.0269 23.62C40.8342 23.6602 40.6356 23.6815 40.4312 23.6815C39.8226 23.6815 39.2588 23.4947 38.792 23.1756C38.4682 22.7986 38.2389 22.3377 38.142 21.8307C38.1207 21.722 38.1065 21.6121 38.0983 21.4998C38.0924 21.4277 38.09 21.3568 38.09 21.2835C38.09 20.9704 38.1396 20.6678 38.2318 20.3854V20.3842C38.3098 20.1892 38.3961 19.9965 38.4906 19.8098V19.8086C38.8393 19.1149 39.2907 18.4826 39.8249 17.9307C39.9525 17.7984 40.0849 17.6707 40.222 17.549C40.8543 16.9841 41.5823 16.5232 42.3788 16.1946C42.3847 16.1923 42.3906 16.1899 42.3954 16.1875L42.3988 16.1862L42.4034 16.1844C42.4098 16.1819 42.4159 16.1794 42.4226 16.1769C42.4308 16.1734 42.4379 16.171 42.4462 16.1675L42.4474 16.1669L42.4485 16.1663C42.7783 16.0363 43.1364 15.9654 43.5122 15.9654C43.6765 15.9654 43.8372 15.9784 43.9932 16.0055C44.382 16.0705 44.7448 16.2124 45.0663 16.4156C45.1313 16.457 45.1951 16.5007 45.2554 16.5468C45.3145 16.5965 45.3688 16.6532 45.4161 16.7135C45.4634 16.7832 45.5083 16.8541 45.5496 16.9285V16.9297C45.7907 17.3505 45.9255 17.835 45.9255 18.3526ZM34.2065 18.0867C35.7358 16.6981 36.6954 14.6949 36.6954 12.4672C36.6954 11.7664 36.6009 11.0868 36.4213 10.4427C36.3149 10.0598 36.1802 9.68872 36.0183 9.33181C36.0041 9.2999 35.9887 9.26681 35.9734 9.2349C35.4534 8.4419 34.5575 7.91836 33.5388 7.91836C32.9585 7.91836 32.4173 8.08854 31.9635 8.38163C31.7779 8.52463 31.5983 8.6759 31.4257 8.83545L31.3832 8.87445C29.9095 10.2584 28.9888 12.2237 28.9888 14.4054C28.9888 15.2669 29.133 16.093 29.3965 16.8647C29.5384 17.2772 29.8362 17.7121 30.0253 17.952C30.4318 18.3999 30.9766 18.7214 31.5912 18.8478C31.7815 18.8868 31.9788 18.9081 32.1809 18.9081C32.8534 18.9081 33.4715 18.68 33.9643 18.2971C34.047 18.2285 34.1274 18.1588 34.2065 18.0867ZM24.8891 14.3581C24.8891 15.2645 24.7307 16.1344 24.4388 16.9404C24.4187 16.9959 24.3986 17.0503 24.3774 17.1046C24.2509 17.4131 24.0725 17.6955 23.8538 17.939C23.5371 18.2924 23.1365 18.5677 22.6826 18.7332C22.3718 18.8466 22.0374 18.9081 21.6875 18.9081C20.9985 18.9081 20.3663 18.6682 19.8675 18.2687C19.8049 18.2155 19.7423 18.1612 19.6808 18.1056L19.6796 18.1044C18.1468 16.7158 17.1836 14.7103 17.1836 12.479C17.1836 11.6115 17.329 10.7784 17.5973 10.0019C17.6445 9.86599 17.6954 9.73126 17.7497 9.59772L17.7509 9.59654C17.7864 9.5209 17.8242 9.44763 17.8655 9.37554C18.3678 8.50454 19.3085 7.91836 20.3864 7.91836C21.0056 7.91836 21.58 8.11217 22.0515 8.4419C22.1945 8.55654 22.3316 8.6759 22.4652 8.79999C22.472 8.80638 22.4788 8.81263 22.4855 8.81884C22.4986 8.83092 22.5119 8.84311 22.5243 8.85554C23.9815 10.2371 24.8891 12.1918 24.8891 14.3581ZM20.7282 28.5719C20.8757 28.5464 21.0365 28.5507 21.2059 28.6005C21.4234 28.6564 21.6166 28.773 21.7664 28.9312C21.7818 28.9451 21.7972 28.9595 21.8126 28.9743L21.8137 28.9753L21.8146 28.9765C22.097 29.3244 22.3007 29.739 22.3996 30.1918C22.4425 30.3954 22.4664 30.6052 22.4664 30.8208C22.4664 31.4699 22.2552 32.0696 21.8981 32.5554C21.8577 32.6173 21.8116 32.6752 21.7606 32.7284C21.731 32.7628 21.7007 32.7966 21.6696 32.8296L21.6677 32.8316L21.6654 32.8331C21.6172 32.8647 21.5665 32.8957 21.5136 32.9248C21.4318 32.9735 21.3436 33.0126 21.2506 33.0405C21.173 33.0659 21.0917 33.0844 21.0069 33.0931C20.7541 33.1188 20.473 33.0566 20.1691 32.8324L20.1673 32.8311L20.1659 32.8296C20.1558 32.8188 20.1457 32.808 20.1358 32.7971C20.0284 32.7026 19.9383 32.5887 19.8711 32.461C19.71 32.2226 19.5829 31.959 19.4975 31.6774C19.4224 31.4309 19.3784 31.1712 19.3712 30.902C19.37 30.8744 19.37 30.848 19.37 30.821C19.37 30.3671 19.4725 29.938 19.6571 29.5543C19.7282 29.4063 19.8112 29.2652 19.9051 29.1323C20.0377 28.9128 20.24 28.7401 20.4813 28.645C20.558 28.6126 20.6406 28.587 20.7282 28.5719ZM32.5936 28.5719C32.7411 28.5464 32.902 28.5507 33.0713 28.6005C33.2889 28.6564 33.4821 28.773 33.6318 28.9312C33.6472 28.9451 33.6626 28.9595 33.6781 28.9743L33.6792 28.9753L33.6801 28.9765C33.9625 29.3244 34.1662 29.739 34.2651 30.1918C34.3079 30.3954 34.3318 30.6052 34.3318 30.8208C34.3318 31.4699 34.1207 32.0696 33.7635 32.5554C33.7231 32.6173 33.677 32.6752 33.626 32.7284C33.5965 32.7628 33.5662 32.7966 33.5351 32.8296L33.5332 32.8316L33.5308 32.8331C33.4826 32.8647 33.432 32.8957 33.379 32.9248C33.2973 32.9735 33.2091 33.0126 33.1161 33.0405C33.0384 33.0659 32.9571 33.0844 32.8723 33.0931C32.6196 33.1188 32.3385 33.0566 32.0345 32.8324L32.0328 32.8311L32.0313 32.8296C32.025 32.8228 32.0186 32.816 32.0123 32.8092C32.0086 32.8051 32.0049 32.8011 32.0012 32.7971C31.8938 32.7026 31.8038 32.5887 31.7365 32.461C31.5754 32.2226 31.4483 31.959 31.3629 31.6774C31.2879 31.4309 31.2438 31.1712 31.2367 30.902C31.2355 30.8744 31.2355 30.848 31.2355 30.821C31.2355 30.3671 31.3379 29.938 31.5226 29.5543C31.5936 29.4063 31.6767 29.2652 31.7705 29.1323C31.9031 28.9128 32.1054 28.7401 32.3468 28.645C32.4234 28.6126 32.506 28.587 32.5936 28.5719ZM29.926 33.7649C29.9322 33.6865 29.9355 33.6072 29.9355 33.5272C29.9355 31.9085 28.6232 30.5963 27.0045 30.5963C25.3859 30.5963 24.0736 31.9085 24.0736 33.5272C24.0736 33.5795 24.075 33.6315 24.0777 33.6831C24.0617 34.5783 23.3678 35.3426 22.4939 35.3626C22.4456 35.3602 22.397 35.359 22.3482 35.359C20.7295 35.359 19.4173 36.6712 19.4173 38.2899C19.4173 39.9086 20.7295 41.2208 22.3482 41.2208C23.4109 41.2208 24.3416 40.6552 24.8555 39.8086C26.0414 38.5913 27.8968 38.5086 29.1563 39.8086C29.6731 40.6421 30.5963 41.1972 31.6491 41.1972C33.2678 41.1972 34.58 39.885 34.58 38.2663C34.58 36.6476 33.2678 35.3354 31.6491 35.3354C31.5652 35.3354 31.4821 35.3389 31.4 35.3458C30.5528 35.3043 29.963 34.4738 29.926 33.7649ZM29.3906 36.6224C29.3989 36.5538 29.4036 36.4829 29.4036 36.4108C29.4036 36.1934 29.3634 35.9842 29.2878 35.7927C29.0302 35.3838 28.6071 35.0896 28.1119 35.0056C27.9027 35.0127 27.7018 35.0565 27.5175 35.1321L27.4997 35.1392C27.4548 35.1581 27.4123 35.1782 27.3697 35.2006C27.3142 35.2302 27.2598 35.2621 27.2078 35.2976C27.2019 35.2993 27.196 35.3014 27.1901 35.3035C27.1843 35.3055 27.1782 35.3076 27.1724 35.3094C27.1192 35.3259 27.0625 35.3354 27.0034 35.3354C26.936 35.3354 26.8722 35.3236 26.8119 35.3023C26.8095 35.3017 26.8075 35.3008 26.8054 35.2999L26.802 35.2985L26.7989 35.2976C26.7469 35.2621 26.6925 35.2302 26.637 35.2006C26.5944 35.1782 26.5519 35.1581 26.507 35.1392L26.4893 35.1321C26.3392 35.0706 26.1784 35.0293 26.0106 35.0127C25.4516 35.0695 24.9706 35.3909 24.6964 35.8495C24.6374 36.0256 24.6043 36.2146 24.6043 36.4108C24.6043 36.4817 24.609 36.5526 24.6173 36.6224V36.6236C24.622 36.6578 24.6267 36.6897 24.6326 36.7228V36.724C24.6468 36.7819 24.6705 36.8363 24.7 36.8847V36.8859C24.7307 36.9249 24.7615 36.9639 24.7945 37.0017C25.2531 37.5383 25.9043 37.9058 26.6417 37.9968C26.7516 38.011 26.8627 38.0181 26.9762 38.0193H26.9951H27.0128H27.0317C27.1558 38.0181 27.2764 38.0098 27.3957 37.9933C28.1202 37.8952 28.7607 37.5312 29.2134 37.0017C29.2464 36.9639 29.2771 36.925 29.3078 36.886L29.3079 36.8847C29.3386 36.8351 29.3611 36.7819 29.3753 36.724V36.7228C29.3812 36.6897 29.3871 36.6566 29.3906 36.6236V36.6224Z" fill="#410075"/>
</svg>
